PathFileType	4	(X/Y/Z)	/Users/itak/Documents/Research/Walk-IL/dataset/trc/00106_00007.trc
DataRate	CameraRate	NumFrames	NumMarkers	Units	OrigDataRate	OrigDataStartFrame	OrigNumFrames
100.000000	100.000000	4	53	mm	100.000000	329	527
Frame#	Time	RPSI			LPSI			L3			STRN			T10			C7			CLAV			RBAK			LBAK			LSHO			LUPA			LAEL			LAOL			LWTS			LWPS			LFRA			LIFD			LHPS			LHTS			RSHO			RUPA			RAEL			RAOL			RWTS			RWPS			RFRA			RIFD			RHTS			RHPS			RBHD			LFHD			RFHD			LBHD			LHIP			RHIP			RASI			LASI			LKNE			LTHI			LANK			LTIP			LTOE			LMT1			LMT5			LHEE			RKNE			RTHI			RANK			RTIP			RTOE			RMT1			RMT5			RHEE			
		X1	Y1	Z1	X2	Y2	Z2	X3	Y3	Z3	X4	Y4	Z4	X5	Y5	Z5	X6	Y6	Z6	X7	Y7	Z7	X8	Y8	Z8	X9	Y9	Z9	X10	Y10	Z10	X11	Y11	Z11	X12	Y12	Z12	X13	Y13	Z13	X14	Y14	Z14	X15	Y15	Z15	X16	Y16	Z16	X17	Y17	Z17	X18	Y18	Z18	X19	Y19	Z19	X20	Y20	Z20	X21	Y21	Z21	X22	Y22	Z22	X23	Y23	Z23	X24	Y24	Z24	X25	Y25	Z25	X26	Y26	Z26	X27	Y27	Z27	X28	Y28	Z28	X29	Y29	Z29	X30	Y30	Z30	X31	Y31	Z31	X32	Y32	Z32	X33	Y33	Z33	X34	Y34	Z34	X35	Y35	Z35	X36	Y36	Z36	X37	Y37	Z37	X38	Y38	Z38	X39	Y39	Z39	X40	Y40	Z40	X41	Y41	Z41	X42	Y42	Z42	X43	Y43	Z43	X44	Y44	Z44	X45	Y45	Z45	X46	Y46	Z46	X47	Y47	Z47	X48	Y48	Z48	X49	Y49	Z49	X50	Y50	Z50	X51	Y51	Z51	X52	Y52	Z52	X53	Y53	Z53	

330	3.29	-305.7013854980469	1101.189208984375	-236.4642028808594	-305.8642883300781	1106.456420898438	-372.2272644042969	-313.7235412597656	1142.210693359375	-304.181640625	-87.46012115478516	1339.834716796875	-303.6020202636719	-340.1456909179688	1291.782348632812	-291.781494140625	-302.8285827636719	1584.196533203125	-314.7140502929688	-121.1588668823242	1475.098754882812	-311.5684204101562	-356.1947021484375	1404.148071289062	-216.6968841552734	-314.2396545410156	1561.75244140625	-415.0314025878906	-231.3718719482422	1542.901733398438	-488.0123291015625	-268.1439208984375	1411.0166015625	-550.4414672851562	-290.1891784667969	1193.279052734375	-562.0084228515625	-346.0559997558594	1193.021606445312	-495.2105712890625	-239.2901916503906	919.4708251953125	-520.7088012695312	-325.9410705566406	912.4755859375	-537.1060180664062	-295.4554138183594	1075.831909179688	-563.7222900390625	-268.1798400878906	729.884033203125	-486.6647338867188	-314.8079833984375	832.5470581054688	-536.6838989257812	-246.0102081298828	826.7740478515625	-527.45068359375	-237.5102233886719	1571.398193359375	-135.2342681884766	-245.3323364257812	1500.116455078125	-66.99903106689453	-214.1419830322266	1206.39990234375	-23.31932830810547	-233.3378448486328	1195.862670898438	-117.9822387695312	-9.134692192077637	1014.70947265625	-48.15735626220703	-70.22067260742188	977.3165283203125	-6.474315643310547	-170.1286010742188	1141.260131835938	-8.262897491455078	69.22242736816406	835.6926879882812	-66.62534332275391	52.14896392822266	920.2929077148438	-44.31948852539062	-4.243003368377686	894.1195678710938	-4.589107990264893	-256.85302734375	1760.400146484375	-245.0720367431641	-104.5695724487305	1811.817504882812	-397.0897216796875	-95.14268493652344	1828.67236328125	-268.3159790039062	-275.3329772949219	1747.803100585938	-380.93115234375	-205.1797180175781	1024.643432617188	-482.8384399414062	-183.8917846679688	1005.24267578125	-116.4114456176758	-99.75637817382812	1077.83056640625	-165.272705078125	-103.3000640869141	1087.688598632812	-430.619873046875	-35.48530960083008	543.81005859375	-446.9463500976562	-105.6651458740234	675.0519409179688	-480.5132141113281	8.629928588867188	30.74128341674805	-431.2741088867188	-59.6556396484375	281.1068420410156	-465.9253845214844	229.2846984863281	81.47435760498047	-378.460693359375	154.4987640380859	70.07811737060547	-343.6483154296875	129.5879669189453	44.25334167480469	-454.0101318359375	-59.2357063293457	28.16269493103027	-368.0057067871094	-242.1084747314453	511.6034240722656	-173.0002899169922	-180.7496490478516	789.5709228515625	-137.7377624511719	-542.541015625	72.85607147216797	-185.7344055175781	-319.1094665527344	391.7465515136719	-160.5319366455078	-319.6175537109375	36.42174911499023	-252.0238800048828	-382.9396362304688	36.00430297851562	-287.4805603027344	-411.8050537109375	41.28746795654297	-169.5581359863281	-598.26708984375	98.83406829833984	-230.9026184082031	
331	3.3	-295.2362060546875	1101.5478515625	-238.13427734375	-295.1183471679688	1107.416015625	-373.9553527832031	-303.1917419433594	1142.639404296875	-305.9589233398438	-77.57201385498047	1340.795654296875	-305.2287292480469	-330.2796325683594	1292.139770507812	-293.751220703125	-293.8874816894531	1584.608032226562	-316.8164978027344	-111.8857040405273	1475.913452148438	-313.2561645507812	-346.9383239746094	1404.333984375	-218.9505004882812	-305.1416625976562	1562.041015625	-417.1781005859375	-222.0263671875	1543.418090820312	-489.9730834960938	-258.1357727050781	1411.356811523438	-552.4486694335938	-278.9331665039062	1193.453247070312	-564.158935546875	-334.9994812011719	1192.902465820312	-497.5505676269531	-227.1834411621094	919.8469848632812	-522.7723999023438	-313.7254028320312	912.57373046875	-539.5217895507812	-283.7023315429688	1076.023315429688	-565.91650390625	-255.6108093261719	730.1280517578125	-488.9517822265625	-302.3494262695312	832.6904907226562	-539.1128540039062	-233.4573974609375	827.185546875	-529.8079833984375	-228.9198913574219	1571.815551757812	-137.1553192138672	-236.9673004150391	1500.403930664062	-69.08674621582031	-207.22412109375	1206.577880859375	-26.09171676635742	-225.4966735839844	1196.335815429688	-120.7728881835938	-4.707368850708008	1012.141418457031	-49.71963500976562	-66.36534881591797	975.81591796875	-8.448101997375488	-163.9917907714844	1141.013305664062	-10.78554439544678	71.73927307128906	832.4641723632812	-67.61520385742188	55.46903610229492	917.2037353515625	-45.39795684814453	-1.481251001358032	891.76513671875	-6.08174467086792	-248.0138397216797	1761.345458984375	-247.2949829101562	-95.41310119628906	1812.627319335938	-398.6465759277344	-86.17101287841797	1829.357788085938	-269.8885803222656	-266.2898864746094	1748.80615234375	-382.9573364257812	-194.5043792724609	1026.087890625	-484.5753784179688	-173.5505523681641	1005.022399902344	-118.6315307617188	-89.43654632568359	1078.336181640625	-167.1470184326172	-92.56940460205078	1088.848754882812	-432.4197998046875	-27.32070159912109	544.15234375	-447.4017333984375	-96.02318572998047	676.0424194335938	-481.2030639648438	9.556861877441406	30.30511474609375	-431.3562622070312	-53.70602035522461	281.369873046875	-466.9750061035156	231.6614685058594	75.35130310058594	-376.3349914550781	155.912353515625	65.97061920166016	-342.3681030273438	131.2488708496094	41.66959381103516	-453.2302551269531	-58.87219619750977	29.30340194702148	-368.5909729003906	-228.7508850097656	510.9830017089844	-174.2858123779297	-168.9307250976562	789.62353515625	-139.9240264892578	-539.814453125	78.39691162109375	-184.7349090576172	-308.601806640625	392.9248962402344	-161.042724609375	-319.7731018066406	36.4323844909668	-252.0956420898438	-382.4248657226562	36.8796501159668	-287.3914184570312	-410.7005310058594	41.54019165039062	-169.4892120361328	-594.2453002929688	106.8511123657227	-229.8293914794922	
332	3.31	-284.8441772460938	1102.12646484375	-239.8116455078125	-284.4697570800781	1108.604370117188	-375.6761779785156	-292.7505493164062	1143.296020507812	-307.7229919433594	-67.71966552734375	1342.009521484375	-306.8499755859375	-320.4042053222656	1292.69384765625	-295.6563110351562	-284.9834594726562	1585.20947265625	-318.8768920898438	-102.6463088989258	1476.99267578125	-314.9147338867188	-337.6062927246094	1404.713745117188	-221.1211090087891	-296.1039428710938	1562.541015625	-419.2642211914062	-212.7336273193359	1544.206665039062	-491.8809204101562	-248.1111145019531	1411.981689453125	-554.45166015625	-267.4838562011719	1193.915405273438	-566.3377075195312	-323.7615051269531	1193.018920898438	-499.9460144042969	-214.7053680419922	920.5363159179688	-524.9345703125	-301.1199951171875	912.9331665039062	-542.0742797851562	-271.6527404785156	1076.5087890625	-568.1848754882812	-242.5694427490234	730.6566772460938	-491.4233093261719	-289.4531555175781	833.1056518554688	-541.7073974609375	-220.4884338378906	827.94775390625	-532.26171875	-220.3252563476562	1572.493774414062	-139.0578918457031	-228.6043090820312	1500.976196289062	-71.14121246337891	-200.4959716796875	1207.044799804688	-28.96346855163574	-217.7804107666016	1197.15234375	-123.7022247314453	-0.6872971057891846	1009.685852050781	-51.31325912475586	-63.02689361572266	974.4664916992188	-10.50272369384766	-158.1420593261719	1141.02294921875	-13.4045352935791	73.53594207763672	829.2081909179688	-68.63040161132812	58.19854354858398	914.0949096679688	-46.47665023803711	0.6167917251586914	889.4742431640625	-7.647256851196289	-239.1916961669922	1762.57373046875	-249.5699005126953	-86.26740264892578	1813.64453125	-400.1811218261719	-77.17893981933594	1830.270629882812	-271.4691467285156	-257.267822265625	1750.062377929688	-384.982421875	-183.8554992675781	1027.794189453125	-486.3552551269531	-163.2225646972656	1004.97705078125	-120.9047698974609	-79.20205688476562	1079.087890625	-169.0769653320312	-81.95294952392578	1090.242431640625	-434.2486267089844	-19.31123161315918	544.6665649414062	-447.939453125	-86.62545776367188	677.1763916015625	-482.0761413574219	10.36021614074707	29.98250961303711	-431.5482482910156	-47.91373062133789	281.7717895507812	-468.2735290527344	233.5645141601562	69.84111785888672	-374.5383605957031	157.0522155761719	62.43037796020508	-341.3205261230469	132.7122344970703	39.60943222045898	-452.7553100585938	-58.56571197509766	30.38287162780762	-369.2669372558594	-214.4785308837891	510.4706726074219	-175.4485168457031	-156.8476715087891	789.8921508789062	-142.1395721435547	-536.419921875	84.59812164306641	-183.6734161376953	-297.1028442382812	394.3238220214844	-161.4444122314453	-319.9461364746094	36.42673110961914	-252.1788940429688	-381.7737731933594	37.84929656982422	-287.3897705078125	-409.4478454589844	41.89484024047852	-169.4975891113281	-589.310546875	115.7020416259766	-228.6606292724609	
333	3.32	-274.5710144042969	1102.884887695312	-241.5312347412109	-273.92919921875	1109.94921875	-377.4146118164062	-282.4292907714844	1144.123168945312	-309.5026245117188	-57.92886734008789	1343.413940429688	-308.4547729492188	-310.5100402832031	1293.3876953125	-297.5188903808594	-276.120361328125	1585.950805664062	-320.8910522460938	-93.44095611572266	1478.276977539062	-316.5338745117188	-328.211181640625	1405.24169921875	-223.2128753662109	-287.1122436523438	1563.209106445312	-421.28515625	-203.4795074462891	1545.232543945312	-493.7265014648438	-238.0699920654297	1412.86474609375	-556.4535522460938	-255.8793792724609	1194.6455078125	-568.5404663085938	-312.3682556152344	1193.3544921875	-502.3812255859375	-201.8656311035156	921.521728515625	-527.1953125	-288.1402282714844	913.5286254882812	-544.7378540039062	-259.3453674316406	1077.265625	-570.5191650390625	-229.0347290039062	731.4555053710938	-494.0726623535156	-276.123779296875	833.7686157226562	-544.4434204101562	-207.120361328125	829.0371704101562	-534.7821044921875	-211.7335662841797	1573.387329101562	-140.9355926513672	-220.2456970214844	1501.791015625	-73.15300750732422	-193.9450225830078	1207.766479492188	-31.90728569030762	-210.2086944580078	1198.276733398438	-126.7454452514648	2.963651418685913	1007.344665527344	-52.93434906005859	-60.15592575073242	973.2625732421875	-12.63068103790283	-152.5623474121094	1141.262329101562	-16.09883880615234	74.61648559570312	825.9088134765625	-69.70439147949219	60.3754768371582	910.9642333984375	-47.58592987060547	2.10247802734375	887.2461547851562	-9.30443000793457	-230.4127960205078	1763.99609375	-251.8204803466797	-77.14987182617188	1814.813354492188	-401.6813049316406	-68.16997528076172	1831.360717773438	-273.0495910644531	-248.2823944091797	1751.51220703125	-386.9796142578125	-173.2701110839844	1029.628540039062	-488.1585998535156	-152.9592437744141	1005.110656738281	-123.1930999755859	-69.10128021240234	1080.039428710938	-171.0375518798828	-71.45877075195312	1091.779907226562	-436.0932312011719	-11.5256986618042	545.2479248046875	-448.5525817871094	-77.51570129394531	678.3516845703125	-483.1163024902344	11.05399227142334	29.76606369018555	-431.8012390136719	-42.35539245605469	282.2402648925781	-469.701416015625	235.0395050048828	64.95337677001953	-373.0577087402344	157.9570617675781	59.42333221435547	-340.4789428710938	133.9769897460938	38.03300857543945	-452.533447265625	-58.30510711669922	31.34362411499023	-369.9839477539062	-199.3055725097656	510.0621032714844	-176.4632873535156	-144.5773773193359	790.322265625	-144.3150177001953	-532.246826171875	91.46999359130859	-182.5106048583984	-284.5324096679688	395.8796997070312	-161.7353210449219	-320.0949096679688	36.39952850341797	-252.2519073486328	-380.9458618164062	38.94038772583008	-287.465087890625	-407.9989013671875	42.39861679077148	-169.564208984375	-583.3720703125	125.3463668823242	-227.3358001708984	
